<svg width="537" height="537" viewBox="0 0 537 537" fill="none" xmlns="http://www.w3.org/2000/svg">
<g filter="url(#filter0_d_35_21)">
<g clip-path="url(#clip0_35_21)">
<rect x="26" y="8" width="489" height="489" rx="244.5" fill="#F2F2F2"/>
<path fill-rule="evenodd" clip-rule="evenodd" d="M52.8697 823.547C-10.0841 841.22 -72.4342 802.982 -133.1 778.66C-192.72 754.757 -259.537 737.139 -295.421 683.913C-331.549 630.325 -327.601 561.301 -323.107 496.829C-318.685 433.396 -315.666 362.715 -269.944 318.455C-225.489 275.421 -154.988 286.095 -94.0794 275.126C-39.5309 265.302 16.9856 234.319 67.192 257.738C116.801 280.879 119.281 350.236 155.278 391.443C200.993 443.773 297.079 460.449 304.609 529.512C311.916 596.536 231.558 637.358 187.677 688.612C145.294 738.116 115.636 805.928 52.8697 823.547Z" fill="#EB478B"/>
<path fill-rule="evenodd" clip-rule="evenodd" d="M76.6408 499.821C92.0008 559.994 153.062 593.12 201.877 631.469C249.849 669.157 296.072 715.749 356.893 719.989C418.126 724.257 473.025 688.231 523.921 653.917C573.996 620.157 630.7 584.108 645.392 525.482C659.677 468.481 617.418 415.561 597.515 360.253C579.692 310.72 578.337 249.52 535.232 219.346C492.639 189.531 434.414 220.427 383.426 210.387C318.673 197.636 259.327 126.522 198.945 153.126C140.346 178.944 144.93 264.426 123.611 324.86C103.02 383.229 61.3265 439.826 76.6408 499.821Z" fill="#8633B0"/>
<path fill-rule="evenodd" clip-rule="evenodd" d="M215.975 331.353C257.582 297.396 301.216 255.944 354.92 257.906C409.523 259.901 448.138 308.073 491.521 341.422C539.345 378.184 604.201 403.932 620.467 462.031C636.917 520.789 608.45 584.251 573.46 634.093C542.353 678.404 486.73 692.083 439.914 719.227C392.981 746.438 353.26 799.427 299.338 793.026C245.454 786.629 220.212 724.476 179.641 688.328C138.72 651.867 70.6121 634.468 60.8529 580.538C51.0772 526.517 105.367 484.462 134.33 437.935C158.579 398.982 180.444 360.351 215.975 331.353Z" fill="#4754EB"/>
<path fill-rule="evenodd" clip-rule="evenodd" d="M423.692 126.805C451.68 98.1444 496.475 99.333 536.113 93.6539C575.067 88.0728 615.916 76.953 651.26 94.201C686.843 111.566 705.893 149.398 723.257 184.982C740.342 219.992 760.392 258.418 749.691 295.907C739.287 332.358 698.611 348.29 669.655 372.769C643.722 394.69 623.227 428.442 589.415 431.396C556.005 434.314 533.444 398.275 501.722 387.439C461.436 373.677 405.347 394.264 380.197 359.927C355.788 326.604 385.919 280.33 393.501 239.693C400.824 200.445 395.787 155.381 423.692 126.805Z" fill="white"/>
</g>
</g>
<defs>
<filter id="filter0_d_35_21" x="0" y="0" width="537" height="537" filterUnits="userSpaceOnUse" color-interpolation-filters="sRGB">
<feFlood flood-opacity="0" result="BackgroundImageFix"/>
<feColorMatrix in="SourceAlpha" type="matrix" values="0 0 0 0 0 0 0 0 0 0 0 0 0 0 0 0 0 0 127 0" result="hardAlpha"/>
<feOffset dx="-2" dy="16"/>
<feGaussianBlur stdDeviation="12"/>
<feColorMatrix type="matrix" values="0 0 0 0 0.0980392 0 0 0 0 0.0980392 0 0 0 0 0.0980392 0 0 0 0.05 0"/>
<feBlend mode="normal" in2="BackgroundImageFix" result="effect1_dropShadow_35_21"/>
<feBlend mode="normal" in="SourceGraphic" in2="effect1_dropShadow_35_21" result="shape"/>
</filter>
<clipPath id="clip0_35_21">
<rect x="26" y="8" width="489" height="489" rx="244.5" fill="white"/>
</clipPath>
</defs>
</svg>
